<svg xmlns="http://www.w3.org/2000/svg" xmlns:xlink="http://www.w3.org/1999/xlink" width="148" height="41" viewBox="0 0 128 41">
    <defs>
        <path id="a" d="M0 1.729V.212h1.516V1.73z"/>
        <path id="c" d="M1.85 1.65H.334V.134H1.85z"/>
    </defs>
    <g fill="none" fill-rule="evenodd">
        <path fill="#0CE" fill-rule="nonzero" d="M20.93 10.087h-.897c-.89 0-1.612-.722-1.612-1.612v-.897c0-.891.721-1.613 1.612-1.613h.897c.891 0 1.613.722 1.613 1.613v.897c0 .89-.722 1.612-1.613 1.612zM20.93 34.998h-.897c-.89 0-1.612-.722-1.612-1.612v-.898c0-.89.721-1.612 1.612-1.612h.897c.891 0 1.613.722 1.613 1.612v.898c0 .89-.722 1.612-1.613 1.612M33.296 22.453h-.898c-.89 0-1.612-.722-1.612-1.612v-.898c0-.89.722-1.612 1.612-1.612h.898c.89 0 1.612.722 1.612 1.612v.898c0 .89-.722 1.612-1.612 1.612M8.565 22.453h-.898c-.89 0-1.612-.722-1.612-1.612v-.898c0-.89.722-1.612 1.612-1.612h.898c.89 0 1.612.722 1.612 1.612v.898c0 .89-.722 1.612-1.612 1.612"/>
        <path fill="#005FFF" fill-rule="nonzero" d="M25.745 36.69a1.34 1.34 0 1 1 2.477-1.025 1.34 1.34 0 0 1-2.477 1.025M12.742 5.298a1.34 1.34 0 1 1 2.476-1.025 1.34 1.34 0 0 1-2.476 1.025M36.69 15.218a1.34 1.34 0 1 1-1.025-2.476 1.34 1.34 0 0 1 1.026 2.476M5.298 28.22a1.34 1.34 0 1 1-1.025-2.475 1.34 1.34 0 0 1 1.025 2.476"/>
        <path fill="#002DAE" fill-rule="nonzero" d="M35.665 28.22a1.34 1.34 0 1 1 1.026-2.475 1.34 1.34 0 0 1-1.026 2.476M4.273 15.218a1.34 1.34 0 1 1 1.025-2.475 1.34 1.34 0 0 1-1.025 2.475M28.221 5.298a1.34 1.34 0 1 1-2.475-1.025 1.34 1.34 0 0 1 2.475 1.025M15.218 36.69a1.34 1.34 0 1 1-2.475-1.025 1.34 1.34 0 0 1 2.475 1.025"/>
        <path fill="#0099C0" fill-rule="nonzero" d="M33.892 34.964a.758.758 0 1 1 1.072-1.072.758.758 0 0 1-1.072 1.072M5.999 7.071A.758.758 0 1 1 7.071 6 .758.758 0 0 1 5.999 7.07M34.964 7.071A.758.758 0 1 1 33.892 6a.758.758 0 0 1 1.072 1.071M7.071 34.964A.758.758 0 1 1 6 33.893a.758.758 0 0 1 1.072 1.071"/>
        <path fill="#0029C0" fill-rule="nonzero" d="M40.205 21.24a.758.758 0 1 1 0-1.516.758.758 0 0 1 0 1.516"/>
        <g transform="translate(0 19.511)">
            <mask id="b" fill="#fff">
                <use xlink:href="#a"/>
            </mask>
            <path fill="#0029C0" fill-rule="nonzero" d="M.758 1.729a.758.758 0 1 1 0-1.517.758.758 0 0 1 0 1.517" mask="url(#b)"/>
        </g>
        <path fill="#0029C0" fill-rule="nonzero" d="M21.24.758a.758.758 0 1 1-1.516 0 .758.758 0 0 1 1.516 0"/>
        <g transform="translate(19.39 39.313)">
            <mask id="d" fill="#fff">
                <use xlink:href="#c"/>
            </mask>
            <path fill="#0029C0" fill-rule="nonzero" d="M1.85.892a.758.758 0 1 1-1.516 0 .758.758 0 0 1 1.516 0" mask="url(#d)"/>
        </g>
        <path fill="#005FFF" fill-rule="nonzero" d="M29.409 13.92h-2.57v-2.57c0-.89.722-1.612 1.613-1.612h.957c.89 0 1.612.722 1.612 1.612v.957c0 .89-.722 1.612-1.612 1.612M14.385 13.92h-2.57c-.89 0-1.611-.723-1.611-1.613v-.957c0-.89.722-1.612 1.612-1.612h.957c.89 0 1.612.722 1.612 1.612v2.57zM12.773 30.823h-.957c-.89 0-1.612-.722-1.612-1.612v-.957c0-.89.722-1.612 1.612-1.612h2.57v2.57c0 .89-.723 1.611-1.613 1.611M29.409 30.836h-.957c-.891 0-1.613-.722-1.613-1.612v-2.57h2.57c.89 0 1.612.723 1.612 1.613v.957c0 .89-.722 1.612-1.612 1.612"/>
        <path fill="#003EC5" fill-rule="nonzero" d="M24.63 18.184h1.074a1.15 1.15 0 0 0 1.15-1.151v-3.114h-3.169a1.15 1.15 0 0 0-1.15 1.15v1.024c0 1.154-.878 2.149-2.032 2.149-1.155 0-2.15-.995-2.15-2.15v-1.064c0-.613-.496-1.109-1.108-1.109H14.4v12.736h2.822c.625 0 1.132-.507 1.132-1.132v-.959c0-1.216.897-2.238 2.052-2.238v.004c1.155 0 2.13.975 2.13 2.13v1.054c0 .63.51 1.141 1.14 1.141h3.178v-3.149c0-.63-.51-1.14-1.141-1.14h-.95c-1.154 0-2.228-.937-2.228-2.092h.004a2.09 2.09 0 0 1 2.09-2.09"/>
        <g fill="#003EC5" fill-rule="nonzero">
            <path d="M51.933 20.675a.934.934 0 0 1 .065-1.232l3.476-3.546H53.77l-4.451 4.629a.343.343 0 0 1-.383.08.343.343 0 0 1-.218-.323v-4.386h-1.298v9.396h1.298v-2.097c0-.275.111-.545.305-.742l.759-.77a.977.977 0 0 1 .71-.274c.264.015.51.142.675.35l2.804 3.533h1.633l-3.67-4.618zM59.08 25.294h1.298v-9.397H59.08zM71.406 15.897v6.142a.313.313 0 0 1-.214.302.315.315 0 0 1-.354-.104l-4.984-6.34H64.69v9.396h1.271V18.98c0-.168.11-.266.214-.302a.316.316 0 0 1 .355.104l5.127 6.511h1.02v-9.396h-1.272z"/>
        </g>
        <text fill="#0098C0" font-family="Roboto-Regular, Roboto" font-size="7.426">
            <tspan x="83.333" y="23.502">FOUNDATION</tspan>
        </text>
        <path fill="#0098C0" fill-rule="nonzero" d="M79.208 20.627a.825.825 0 1 1-1.65 0 .825.825 0 0 1 1.65 0"/>
    </g>
</svg>
