<svg xmlns="http://www.w3.org/2000/svg" xmlns:xlink="http://www.w3.org/1999/xlink" width="167" height="49" viewBox="0 0 167 49">
    <defs>
        <path id="a" d="M0 2.069V.254h1.815v1.815z"/>
        <path id="c" d="M2.214 1.975H.4V.16h1.814z"/>
    </defs>
    <g fill="none" fill-rule="evenodd">
        <path fill="#FFF" fill-rule="nonzero" d="M25.045 12.07H23.97a1.929 1.929 0 0 1-1.929-1.93V9.068c0-1.066.863-1.929 1.929-1.929h1.074c1.066 0 1.93.863 1.93 1.93v1.073c0 1.065-.864 1.929-1.93 1.929zM25.045 41.878H23.97a1.929 1.929 0 0 1-1.929-1.93v-1.073c0-1.066.863-1.93 1.929-1.93h1.074c1.066 0 1.93.864 1.93 1.93v1.074c0 1.065-.864 1.929-1.93 1.929M39.841 26.867h-1.074a1.929 1.929 0 0 1-1.928-1.93v-1.073c0-1.066.863-1.93 1.928-1.93h1.074a1.93 1.93 0 0 1 1.93 1.93v1.073a1.93 1.93 0 0 1-1.93 1.93M10.248 26.867H9.174a1.929 1.929 0 0 1-1.929-1.93v-1.073c0-1.066.864-1.93 1.93-1.93h1.073a1.93 1.93 0 0 1 1.93 1.93v1.073a1.93 1.93 0 0 1-1.93 1.93M30.806 43.903a1.603 1.603 0 1 1 2.963-1.226 1.603 1.603 0 0 1-2.963 1.226M15.247 6.34a1.603 1.603 0 1 1 2.962-1.228 1.603 1.603 0 0 1-2.962 1.228M43.903 18.21a1.603 1.603 0 1 1-1.227-2.963 1.603 1.603 0 0 1 1.227 2.962M6.34 33.768a1.603 1.603 0 1 1-1.227-2.962 1.603 1.603 0 0 1 1.227 2.962M42.676 33.768a1.603 1.603 0 1 1 1.227-2.962 1.603 1.603 0 0 1-1.227 2.962M5.113 18.21a1.603 1.603 0 1 1 1.226-2.962 1.603 1.603 0 0 1-1.226 2.961M33.769 6.34a1.603 1.603 0 1 1-2.962-1.227A1.603 1.603 0 0 1 33.77 6.34M18.21 43.903a1.603 1.603 0 1 1-2.962-1.227 1.603 1.603 0 0 1 2.961 1.227M40.555 41.837a.907.907 0 1 1 1.282-1.282.907.907 0 0 1-1.282 1.282M7.178 8.461A.907.907 0 1 1 8.46 7.178a.907.907 0 0 1-1.282 1.283M41.838 8.461a.907.907 0 1 1-1.283-1.282.907.907 0 0 1 1.283 1.282M8.461 41.837a.907.907 0 1 1-1.283-1.282.907.907 0 0 1 1.283 1.282M48.108 25.415a.907.907 0 1 1 0-1.814.907.907 0 0 1 0 1.814"/>
        <g transform="translate(0 23.347)">
            <mask id="b" fill="#fff">
                <use xlink:href="#a"/>
            </mask>
            <path fill="#FFF" fill-rule="nonzero" d="M.907 2.069a.907.907 0 1 1 0-1.815.907.907 0 0 1 0 1.815" mask="url(#b)"/>
        </g>
        <path fill="#FFF" fill-rule="nonzero" d="M25.415.907a.907.907 0 1 1-1.814 0 .907.907 0 0 1 1.814 0"/>
        <g transform="translate(23.201 47.041)">
            <mask id="d" fill="#fff">
                <use xlink:href="#c"/>
            </mask>
            <path fill="#FFF" fill-rule="nonzero" d="M2.214 1.067A.907.907 0 1 1 .4 1.068a.907.907 0 0 1 1.814 0" mask="url(#d)"/>
        </g>
        <path fill="#FFF" fill-rule="nonzero" d="M35.19 16.655h-3.075v-3.074c0-1.065.864-1.93 1.93-1.93h1.145a1.93 1.93 0 0 1 1.929 1.93v1.145a1.93 1.93 0 0 1-1.93 1.93M17.213 16.655h-3.074a1.929 1.929 0 0 1-1.929-1.929v-1.145c0-1.065.863-1.93 1.929-1.93h1.145a1.93 1.93 0 0 1 1.929 1.93v3.074zM15.284 36.883h-1.145a1.93 1.93 0 0 1-1.93-1.93v-1.145a1.93 1.93 0 0 1 1.93-1.929h3.074v3.074a1.93 1.93 0 0 1-1.929 1.93M35.19 36.898h-1.145a1.929 1.929 0 0 1-1.93-1.929v-3.074h3.075a1.93 1.93 0 0 1 1.929 1.929v1.145a1.93 1.93 0 0 1-1.93 1.93"/>
        <path fill="#FFF" fill-rule="nonzero" d="M29.472 21.758h1.285c.76 0 1.376-.616 1.376-1.377v-3.726h-3.791c-.76 0-1.377.616-1.377 1.377v1.224c0 1.382-1.05 2.572-2.432 2.572s-2.571-1.19-2.571-2.572v-1.274c0-.733-.595-1.327-1.327-1.327H17.23v15.24h3.376c.749 0 1.355-.607 1.355-1.355v-1.147c0-1.456 1.074-2.678 2.456-2.678v.005c1.381 0 2.547 1.167 2.547 2.548v1.261c0 .754.611 1.366 1.366 1.366h3.802v-3.768c0-.754-.611-1.365-1.366-1.365h-1.136c-1.381 0-2.666-1.12-2.666-2.502h.005a2.501 2.501 0 0 1 2.502-2.502"/>
        <g fill="#FFF" fill-rule="nonzero">
            <path d="M62.142 24.74a1.117 1.117 0 0 1 .077-1.474l4.16-4.244h-2.04l-5.326 5.539a.41.41 0 0 1-.458.097.41.41 0 0 1-.262-.387v-5.25h-1.552v11.245h1.552v-2.51c0-.329.134-.652.365-.888l.909-.92c.223-.226.539-.333.85-.33.316.018.61.17.807.419l3.355 4.229h1.954l-4.39-5.527zM70.694 30.266h1.553V19.022h-1.553zM85.444 19.022v7.35c0 .2-.133.318-.257.361a.377.377 0 0 1-.424-.125l-5.964-7.586h-1.391v11.244h1.521V22.71c0-.2.132-.318.256-.361a.378.378 0 0 1 .425.124l6.135 7.792h1.22V19.022h-1.521z"/>
        </g>
        <text fill="#FFF" font-family="Roboto-Regular, Roboto" font-size="11.111">
            <tspan x="100" y="28.889">FOUNDATION</tspan>
        </text>
        <path fill="#FFF" fill-rule="nonzero" d="M94.779 24.682a.987.987 0 1 1-1.974 0 .987.987 0 0 1 1.974 0"/>
    </g>
</svg>
