<svg xmlns="http://www.w3.org/2000/svg" width="48" height="48" viewBox="0 0 48 48">
    <g fill="none" fill-rule="evenodd" transform="translate(-6 -6)">
        <rect width="42.394" height="42.394" x="9" y="8.78" fill="#FFF" rx="16" transform="rotate(45 30.197 29.977)"/>
        <path fill="#00F" d="M34.79 27.369h1.3c.768 0 1.39-.625 1.39-1.395V22.2h-3.832c-.768 0-1.39.624-1.39 1.394v1.24c0 1.4-1.062 2.605-2.458 2.605-1.397 0-2.599-1.205-2.599-2.604v-1.29c0-.743-.6-1.345-1.34-1.345H22.42v15.437h3.412a1.37 1.37 0 0 0 1.369-1.372v-1.162c0-1.475 1.086-2.713 2.482-2.713v.005c1.396 0 2.575 1.182 2.575 2.58v1.278c0 .764.617 1.384 1.38 1.384h3.842V33.82c0-.763-.618-1.383-1.38-1.383h-1.148c-1.396 0-2.694-1.135-2.694-2.534h.005a2.53 2.53 0 0 1 2.527-2.534"/>
    </g>
</svg>
